<?xml version="1.0" encoding="utf-8"?>
<!-- Generator: Adobe Illustrator 22.0.1, SVG Export Plug-In . SVG Version: 6.00 Build 0)  -->
<svg version="1.1" id="Layer_1" xmlns="http://www.w3.org/2000/svg" xmlns:xlink="http://www.w3.org/1999/xlink" x="0px" y="0px"
	 viewBox="0 0 23.9 19" style="enable-background:new 0 0 23.9 19;" xml:space="preserve">
<style type="text/css">
	.st0{fill:#F7F9F9;}
	.st1{fill:#545454;}
	.st2{fill:#DEDEDE;}
	.st3{fill:#132131;}
	.st4{fill:#C5C5C5;}
	.st5{fill:#9A9A9A;}
	.st6{fill:#676767;}
	.st7{fill:#FDFDFC;}
	.st8{fill:#DDDDDD;}
	.st9{fill:#7B7B7B;}
	.st10{fill:#F6F6F7;}
	.st11{fill:#CDCDCD;}
	.st12{fill:#C8C8C8;}
	.st13{fill:#162433;}
	.st14{fill:#9A7255;}
	.st15{fill:#7F7F7F;}
	.st16{fill:#684D47;}
	.st17{fill:#E9BD8C;}
	.st18{fill:none;}
	.st19{fill:#555D66;}
</style>
<path id="XMLID_406_" class="st0" d="M22.3,1l-20.8,0c-0.8,0-1.4,0.6-1.4,1.4l0,14c0,0.8,0.6,1.4,1.4,1.4l20.8,0
	c0.8,0,1.4-0.6,1.4-1.4l0-14C23.8,1.7,23.1,1,22.3,1z"/>
<path id="XMLID_1_" class="st0" d="M22.2,1l-20.8,0C0.6,1.1,0,1.7,0,2.5l0,14C0,17.3,0.7,18,1.4,18l20.8,0c0.8,0,1.4-0.6,1.4-1.4
	l0-14C23.7,1.7,23,1,22.2,1z"/>
<path id="XMLID_376_" class="st1" d="M10.2,8.6C10.1,8.6,10.1,8.6,10.2,8.6c-0.1-0.1-0.1-0.1-0.1-0.1c-0.1-0.1-0.1-0.2,0-0.4
	c0.1-0.2,0-0.4-0.2-0.5c-0.1,0-0.1,0-0.1-0.1C9.6,7.4,9.4,7.3,9.2,7.2C9.1,7.2,9.1,7.1,9.1,7c0-0.2,0-0.5-0.1-0.7
	C9,6.2,8.9,6,8.7,5.9C8.7,5.8,8.7,5.7,8.6,5.7c-0.1-0.1-0.1-0.2,0-0.3C8.8,5,8.9,4.7,8.9,4.4c0-0.5-0.2-0.8-0.7-0.8
	c-0.2,0-0.4,0-0.5,0C7.4,3.6,7.2,3.8,6.9,3.9c0,0-0.1,0-0.1,0c0,0-0.1-0.1-0.1-0.1C6.4,3.6,6.1,3.5,5.7,3.6C5.4,3.7,5.1,3.9,4.9,4.1
	C4,4.8,3.3,5.6,2.8,6.7C2.7,6.8,2.7,7,2.6,7.2c0,0.3,0,0.5,0,0.5c0,0.3,0.2,0.4,0.4,0.6c0.1,0.1,0.1,0.1,0.1,0.3
	C3,9.2,3.5,9.8,4.1,9.9c0,0,0.1,0,0.1,0c0.1,0,0.1,0,0.1,0.1c0.5,0.8,1.2,1.4,2.2,1.6c0.9,0.2,1.8,0.1,2.5-0.5
	c0.6-0.4,0.9-1,1.2-1.7c0-0.1,0.1-0.2,0.1-0.3C10.5,8.9,10.4,8.7,10.2,8.6z M4.8,9.4C4.6,9.7,4.3,9.7,4,9.6C3.7,9.5,3.5,9.3,3.4,8.9
	C3.4,8.5,3.6,8.1,4,8c0.2-0.1,0.3,0,0.5,0c0.1,0,0.1,0.1,0.2,0.2c0,0.1,0.1,0.2,0.1,0.3c0-0.1,0-0.1,0.1-0.2C4.9,8.5,5,8.6,5,8.8
	C5,8.8,5,8.7,5.1,8.7C5.1,9,5,9.2,4.8,9.4z M5.4,6.4C5.4,6.4,5.4,6.5,5.4,6.4C5.4,6.5,5.4,6.5,5.4,6.4L5.4,6.4
	C5.3,6.5,5.3,6.5,5.3,6.5c0,0,0,0,0,0C5.1,6.9,4.8,7.3,4.7,7.7c0,0,0,0.1-0.1,0C4.3,7.6,4,7.7,3.7,7.8C3.6,7.9,3.5,8,3.4,8.1
	c0,0,0,0,0,0C3.2,8,3,7.9,2.9,7.7c0-0.2,0-0.3,0-0.5C3,6.8,3.3,6.4,3.5,6C3.7,5.7,3.8,5.5,4,5.3c0.4-0.4,0.8-0.8,1.3-1.1
	C5.5,4,5.6,3.9,5.9,3.9c0.1,0,0.1,0,0.1,0l0,0c0.3-0.1,0.3,0,0.4,0.1C6.5,4,6.7,4.1,6.8,4.2C7,4.1,7.3,3.9,7.6,3.8c0,0,0.1,0,0.1,0
	c0.1,0,0.1,0,0.2,0c0.2,0,0.4,0,0.6,0.1C8.6,4,8.7,4.2,8.6,4.4c0,0.3-0.2,0.6-0.3,0.9c0,0,0,0-0.1,0C8.1,5.2,7.9,5.2,7.7,5.2
	c-0.3,0-0.6,0.1-0.8,0.2C6.4,5.6,6,5.9,5.6,6.2C5.6,6.3,5.5,6.3,5.4,6.4z M10.2,9.1c0,0.1-0.1,0.1-0.1,0.2C10,9.5,9.9,9.8,9.7,10
	c-0.2,0.3-0.5,0.5-0.8,0.7c-0.5,0.2-0.9,0.3-1.4,0.2c-0.3-0.1-0.6-0.3-0.7-0.6c0,0,0-0.1,0-0.1c0,0,0,0,0,0c0,0.1,0,0.1,0,0.2
	C6.6,10.2,6.6,10,6.5,9.8c0,0.1-0.1,0.1-0.1,0.2C6.4,9.9,6.3,9.7,6.4,9.4c0,0,0,0.1-0.1,0.1c0-0.2,0-0.5,0.1-0.7
	c0.1-0.2,0.2-0.3,0.3-0.4c0,0,0,0,0-0.1c-0.1,0-0.2-0.1-0.4-0.2c0.1,0,0.1,0,0.1,0C6.3,7.9,6.1,7.8,6.1,7.5c0.1,0,0.1,0.1,0.1,0.1
	c0-0.1,0-0.2,0-0.3c0-0.4,0.3-0.8,0.7-0.8c0.2,0,0.3,0,0.5,0c0.3,0,0.5-0.1,0.7-0.2C8.1,6.1,8.2,6,8.3,6c0.1,0,0.2,0,0.3,0.1
	c0.1,0.1,0.1,0.3,0.2,0.4c0,0.2,0,0.5,0.1,0.7c0,0.1,0,0.1,0.1,0.2c0.2,0.1,0.5,0.2,0.6,0.4c0,0,0,0.1,0.1,0.1c0,0,0.1,0,0.1,0
	c0.1,0,0.1,0.1,0.1,0.2C9.4,8.6,8.9,8.9,8.3,9C8.1,9.1,7.8,9.1,7.6,9.1c-0.2,0-0.3,0.1-0.4,0.3c0,0,0,0,0,0.1c0,0.4,0.2,0.6,0.5,0.6
	C8.2,10.1,8.6,10,9,9.8c0.3-0.1,0.6-0.3,0.8-0.6c0,0,0.1-0.1,0.1-0.1c0,0,0,0,0,0c0,0,0,0-0.1,0C9.7,9.3,9.5,9.4,9.2,9.5
	C8.8,9.8,8.4,9.9,7.9,9.9c-0.1,0-0.2,0-0.3-0.1c-0.1,0-0.2-0.1-0.2-0.2c0,0,0-0.1,0-0.1c0-0.1,0.1-0.2,0.2-0.2C8,9.2,8.4,9.2,8.7,9
	c0.4-0.1,0.7-0.3,1-0.6c0,0,0.1,0,0.1,0c0.1,0.1,0.1,0.3,0.1,0.4c0.1,0,0.1,0,0.2,0C10.1,8.9,10.2,9,10.2,9.1z"/>
<path id="XMLID_283_" class="st2" d="M9.9,8.9c0.1,0,0.1,0,0.2,0c0.1,0,0.2,0.1,0.1,0.2c0,0.1-0.1,0.1-0.1,0.2c0,0,0,0,0,0
	C9.8,9.5,9.6,9.7,9.4,9.9c-0.2,0.2-0.5,0.3-0.8,0.4c-0.1,0-0.1,0,0,0.1c0.1,0.1,0.2,0.2,0.3,0.2c0,0,0,0,0.1,0
	c-0.5,0.2-0.9,0.3-1.4,0.2c-0.3-0.1-0.6-0.3-0.7-0.6c0,0,0-0.1,0-0.1c0,0,0,0,0,0c0,0.1,0,0.1,0,0.2C6.6,10.2,6.6,10,6.5,9.8
	c0,0.1-0.1,0.1-0.1,0.2C6.4,9.9,6.3,9.7,6.4,9.4c0,0,0,0.1-0.1,0.1c0-0.2,0-0.5,0.1-0.7c0.1-0.2,0.2-0.3,0.3-0.4c0,0,0,0,0-0.1
	c0,0,0.1,0,0.1,0c0.1-0.1,0.3-0.2,0.5-0.2c0.1,0,0.1,0,0.2-0.1C7.6,8,7.7,7.9,7.8,7.9c0,0,0.1-0.1,0.1-0.1c0-0.1,0.1-0.2,0.1-0.3
	c0.1-0.1,0.2-0.2,0.4-0.2c0.1,0,0.2,0,0.3,0c0,0,0,0,0,0c0.1,0.1,0.2,0.1,0.3,0.1c0.2,0.1,0.5,0.2,0.6,0.4c0,0,0,0,0.1,0.1
	C9.6,7.9,9.6,8,9.6,8C9.4,8.3,9.2,8.4,9,8.5C8.6,8.8,8.1,8.9,7.6,9C7.4,9,7.1,9.1,7.2,9.4c0,0.4,0.2,0.6,0.5,0.6
	C8.2,10.1,8.6,10,9,9.8c0.3-0.1,0.6-0.3,0.8-0.6c0,0,0.1-0.1,0.1-0.1c0,0,0,0,0,0c0,0,0,0,0,0c0,0,0,0-0.1,0C9.9,9,9.9,9,9.9,8.9z
	 M8.3,7.7c0.1,0,0.1-0.1,0.2-0.1c0,0,0.1,0.1,0.1,0c0.1,0,0.1-0.1,0-0.2c0-0.1-0.1-0.1-0.1-0.1c-0.1-0.1-0.4,0-0.4,0.1
	c-0.1,0-0.1,0-0.1,0.1c0,0.1,0.1,0.1,0.2,0.1C8.3,7.8,8.3,7.8,8.3,7.7z"/>
<path id="XMLID_257_" class="st3" d="M5.3,6.5C5.1,6.9,4.8,7.3,4.7,7.7c0,0,0,0.1-0.1,0C4.3,7.6,4,7.7,3.7,7.8c0,0,0-0.1,0-0.1
	c0.2-0.5,0.4-1,0.8-1.4c0.4-0.5,0.8-1,1.3-1.3c0,0,0,0,0.1,0c0,0-0.1,0.1-0.1,0.1C5.5,5.3,5.2,5.7,4.9,6.1C4.8,6.2,4.7,6.3,4.6,6.5
	c0,0,0.1,0,0.1,0C4.8,6.3,5,6.2,5.1,6C5.5,5.5,6,4.9,6.6,4.5C6.9,4.3,7.3,4,7.7,3.9c0,0,0,0,0,0c0.1,0,0.1,0,0.2,0
	c0.2,0,0.4,0,0.6,0.1C8.6,4,8.7,4.2,8.6,4.4c0,0.3-0.2,0.6-0.3,0.9c0,0,0,0-0.1,0C8.2,5.2,8.1,5.1,7.9,5c0,0,0,0,0,0
	c0,0.1,0,0-0.1,0C7.7,5,7.6,5,7.5,4.9c0,0,0,0,0,0c0,0,0,0,0,0c0,0,0,0.1,0.1,0.1C7.4,5,7.2,5,7.1,5c0.1,0,0.1,0,0.2,0.1
	c-0.3,0-0.5,0-0.7,0.1c0.1,0.1,0.2,0,0.2,0.1C6.5,5.3,6.3,5.4,6.2,5.5c0.1,0,0.1,0,0.2,0c0,0,0,0,0,0C6.1,5.7,5.8,5.9,5.6,6.1
	C5.5,6.2,5.4,6.3,5.3,6.5L5.3,6.5C5.3,6.5,5.3,6.5,5.3,6.5L5.3,6.5C5.3,6.5,5.3,6.5,5.3,6.5L5.3,6.5C5.3,6.5,5.3,6.5,5.3,6.5z
	 M4.6,6.5C4.6,6.5,4.6,6.5,4.6,6.5C4.6,6.5,4.6,6.5,4.6,6.5C4.6,6.5,4.6,6.5,4.6,6.5C4.6,6.5,4.6,6.5,4.6,6.5z"/>
<path id="XMLID_237_" class="st4" d="M8.9,7.4c-0.1,0.1-0.2,0-0.3-0.1c0,0,0,0,0,0c0-0.1,0-0.3-0.1-0.4c0,0-0.1-0.1-0.1-0.1
	c-0.1,0-0.1,0.1-0.1,0.1c0,0.1,0,0.2,0,0.3C8.2,7.3,8.1,7.3,8,7.4C7.9,7.5,7.8,7.6,7.8,7.8c0,0,0,0.1-0.1,0.1C7.7,7.9,7.6,8,7.5,8
	c-0.1,0-0.1,0-0.2,0.1c-0.2,0-0.3,0.1-0.5,0.2c0,0,0,0-0.1,0c-0.1,0-0.2-0.1-0.4-0.2c0.1,0,0.1,0,0.1,0C6.3,7.9,6.1,7.8,6.1,7.5
	c0.1,0,0.1,0.1,0.1,0.1c0-0.1,0-0.2,0-0.3c0-0.1,0-0.1,0.1-0.2c0.1-0.3,0.3-0.4,0.6-0.4c0.2,0,0.4,0.1,0.7,0c0.3,0,0.6-0.2,0.8-0.5
	c0.1-0.1,0.1-0.1,0.3-0.1c0.1,0.1,0.1,0.3,0.2,0.4c0,0.2,0,0.5,0.1,0.7C8.8,7.3,8.9,7.3,8.9,7.4z M7.2,7.4C7,7.4,6.9,7.4,6.8,7.5
	c0,0-0.1,0.1-0.1,0.1c0,0,0.1,0,0.1,0c0.2-0.1,0.4-0.1,0.7,0c0,0,0.1,0,0.1,0c0,0,0-0.1,0-0.1C7.4,7.4,7.3,7.4,7.2,7.4z M7.4,7.8
	C7.4,7.8,7.5,7.8,7.4,7.8c0.1,0,0.1,0,0.1,0c0,0,0,0,0,0c-0.1-0.1-0.4,0-0.4,0.1c0,0,0,0,0,0.1c0,0,0,0,0.1,0
	C7.2,7.8,7.3,7.8,7.4,7.8z"/>
<path id="XMLID_204_" class="st5" d="M3.5,6C3.7,5.7,3.8,5.5,4,5.3c0.4-0.4,0.8-0.8,1.3-1.1C5.5,4,5.8,3.9,6,3.9c0.1,0,0.1,0,0.2,0
	c0,0.1-0.1,0.2,0,0.3C6.1,4.1,6,4.1,6,4.1c-0.1-0.1-0.2,0-0.3,0c0,0.1,0,0.2,0,0.2c0,0.1,0,0.2,0,0.3c0,0.1,0,0.1-0.1,0.2
	c-0.4,0.3-0.7,0.6-1.1,1C4.4,6.1,4.3,6.3,4.2,6.4c0,0.1-0.1,0.1-0.1,0c0,0,0,0,0,0C3.9,6.3,3.7,6.1,3.5,6z"/>
<path id="XMLID_200_" class="st6" d="M3.5,6C3.7,6.1,3.9,6.3,4,6.4c0,0,0,0,0,0c0,0,0.1,0,0.1,0c0.1-0.2,0.3-0.4,0.4-0.5
	c0.3-0.4,0.7-0.7,1.1-1c0.1-0.1,0.1-0.1,0.1-0.2c0-0.1,0-0.2,0-0.3c0.1,0.1,0.3,0.2,0.4,0.4C6,4.8,6,4.8,6,4.8c0,0,0,0,0,0l0,0
	c0,0,0,0,0,0l0,0c0,0-0.1,0-0.1,0C5.3,5.3,4.9,5.7,4.5,6.2C4.2,6.7,3.9,7.1,3.8,7.7c0,0,0,0.1,0,0.1C3.6,7.9,3.5,8,3.4,8.1
	c0,0,0,0,0,0C3.2,8,3,7.9,2.9,7.7c0-0.2,0-0.3,0-0.5C3,6.8,3.3,6.4,3.5,6z"/>
<path id="XMLID_192_" class="st7" d="M9.9,8.9c0,0.1,0,0.1,0,0.2C9.7,9.3,9.5,9.4,9.2,9.5C8.8,9.8,8.4,9.9,7.9,9.9
	c-0.1,0-0.2,0-0.3-0.1c-0.1,0-0.2-0.1-0.2-0.2C7.9,9.7,8.8,9.5,9,9.2C8.7,9.3,8.5,9.4,8.2,9.5c-0.3,0-0.6,0.1-0.8,0
	c0-0.1,0.1-0.2,0.2-0.2C8,9.2,8.4,9.2,8.7,9c0.4-0.1,0.7-0.3,1-0.6c0,0,0.1,0,0.1,0C9.8,8.6,9.9,8.7,9.9,8.9z"/>
<path id="XMLID_181_" class="st8" d="M5,8.8C5,8.8,5,8.7,5.1,8.7c0,0.3,0,0.5-0.2,0.8C4.6,9.7,4.3,9.7,4,9.6
	C3.7,9.5,3.5,9.3,3.4,8.9C3.4,8.5,3.6,8.1,4,8c0.2-0.1,0.3,0,0.5,0c0.1,0,0.1,0.1,0.2,0.2c0,0.1,0.1,0.2,0.1,0.3
	c0-0.1,0-0.1,0.1-0.2C4.9,8.5,5,8.6,5,8.8z M4.6,8.6C4.6,8.6,4.6,8.6,4.6,8.6C4.6,8.6,4.6,8.6,4.6,8.6C4.6,8.6,4.6,8.6,4.6,8.6
	c0.1-0.1,0.1-0.2,0-0.2C4.4,8.2,4.3,8.2,4.1,8.2c-0.2,0-0.3,0.2-0.4,0.4c0,0.2,0,0.3,0.1,0.4c0,0,0,0.1,0.1,0c0,0,0,0,0-0.1
	c0-0.2,0-0.3,0.1-0.5c0,0.1,0,0.1,0,0.2C4,9,4.2,9.2,4.5,9.2c0,0.1-0.1,0.1-0.2,0.1c0,0-0.1,0-0.1,0c0,0,0,0,0,0.1
	c0.1,0.1,0.3,0,0.4-0.1C4.8,9,4.7,8.9,4.5,8.7C4.4,8.7,4.4,8.6,4.6,8.6C4.5,8.6,4.5,8.6,4.6,8.6L4.6,8.6z"/>
<path id="XMLID_180_" class="st8" d="M8.6,6.1c-0.1,0-0.2,0-0.3,0.1C8.1,6.5,7.9,6.7,7.5,6.7c-0.2,0-0.4,0-0.7,0
	c-0.3,0-0.5,0.2-0.6,0.4c0,0.1,0,0.1-0.1,0.2c0-0.4,0.3-0.8,0.7-0.8c0.2,0,0.3,0,0.5,0c0.3,0,0.5-0.1,0.7-0.2C8.1,6.1,8.2,6,8.3,6
	C8.4,6,8.5,6,8.6,6.1z"/>
<path id="XMLID_179_" class="st9" d="M5.4,6.5c0.1-0.1,0.2-0.2,0.3-0.3c0.2-0.2,0.4-0.4,0.7-0.6c0,0,0,0,0,0c-0.1,0-0.1,0-0.2,0
	c0.2-0.1,0.4-0.2,0.5-0.2c-0.1-0.1-0.2,0-0.2-0.1C6.7,5.1,7,5.1,7.2,5.1C7.2,5,7.1,5,7.1,5c0.2,0,0.4,0,0.5,0.1c0,0,0-0.1-0.1-0.1
	c0,0,0,0,0,0C7.6,5,7.7,5,7.8,5c0,0,0.1,0.1,0.1,0c0,0,0,0,0,0c0.2,0.1,0.3,0.1,0.4,0.3C8.1,5.2,7.9,5.2,7.7,5.2
	c-0.3,0-0.6,0.1-0.8,0.2C6.4,5.6,6,5.9,5.6,6.2C5.6,6.3,5.5,6.3,5.4,6.5C5.4,6.4,5.4,6.5,5.4,6.5z"/>
<path id="XMLID_178_" class="st4" d="M7.2,9.4C7.1,9.1,7.4,9,7.6,9c0.5-0.1,1-0.2,1.4-0.4C9.2,8.4,9.4,8.3,9.6,8
	c0-0.1,0.1-0.1,0.1-0.2c0,0,0.1,0,0.1,0c0.1,0,0.1,0.1,0.1,0.2C9.4,8.6,8.9,8.9,8.3,9C8.1,9.1,7.8,9.1,7.6,9.1
	C7.4,9.1,7.3,9.2,7.2,9.4C7.2,9.4,7.2,9.4,7.2,9.4z"/>
<path id="XMLID_175_" class="st4" d="M8.9,10.6C8.9,10.6,8.9,10.6,8.9,10.6c-0.2-0.1-0.3-0.2-0.4-0.3c0,0,0-0.1,0-0.1
	c0.3-0.1,0.5-0.2,0.8-0.4C9.6,9.7,9.8,9.5,10,9.3c0,0,0,0,0,0C10,9.5,9.9,9.8,9.7,10C9.5,10.3,9.3,10.5,8.9,10.6z"/>
<path id="XMLID_174_" class="st10" d="M6,4.8c0,0,0.1-0.1,0.1-0.1c0,0,0.1-0.1,0.1-0.1c0.1,0,0.1-0.1,0.1-0.1c0,0,0.1-0.1,0.1-0.1
	c0,0,0.1,0,0.1-0.1c0,0,0.1-0.1,0.1-0.1c0,0,0.1-0.1,0.1-0.1c0.3-0.1,0.5-0.3,0.8-0.4c0,0,0.1,0,0.1,0c0,0,0,0,0,0
	C7.3,4,6.9,4.3,6.6,4.5C6,4.9,5.5,5.5,5.1,6C5,6.2,4.8,6.3,4.7,6.5c0,0,0,0-0.1,0c0.1-0.1,0.2-0.3,0.3-0.4C5.2,5.7,5.5,5.3,5.8,5
	C5.9,5,5.9,4.9,6,4.8L6,4.8C5.9,4.9,6,4.9,6,4.8L6,4.8C6,4.9,6,4.8,6,4.8z"/>
<path id="XMLID_173_" class="st11" d="M6.8,4.2c0,0-0.1,0.1-0.1,0.1c-0.1,0-0.1-0.1-0.2-0.1c0,0,0,0,0,0c0,0.1,0,0.1,0.1,0.2
	c0,0-0.1,0-0.1,0.1c-0.1,0-0.2-0.1-0.4-0.1c0.1,0.1,0.2,0.1,0.2,0.2c0,0-0.1,0.1-0.1,0.1C6,4.5,5.8,4.3,5.6,4.1C5.7,4.1,5.8,4,6,4.1
	c0.1,0,0.1,0,0.2,0.1c0,0,0.1,0,0.1,0c0-0.1-0.1-0.2-0.1-0.3c0.1-0.1,0.2,0,0.3,0.1C6.6,4,6.7,4.1,6.8,4.2z"/>
<path id="XMLID_172_" class="st12" d="M7.4,9.5c0.3,0.1,0.6,0.1,0.8,0c0.3,0,0.5-0.1,0.8-0.2C8.8,9.5,7.9,9.7,7.4,9.6
	C7.3,9.6,7.4,9.5,7.4,9.5z"/>
<path id="XMLID_171_" class="st13" d="M6.2,3.9c0,0.1,0.1,0.2,0.1,0.3c-0.1,0-0.1,0-0.1,0C6.1,4.1,6.2,4,6.2,3.9L6.2,3.9z"/>
<path id="XMLID_170_" class="st14" d="M5.3,6.5C5.3,6.5,5.3,6.5,5.3,6.5C5.3,6.5,5.3,6.5,5.3,6.5z"/>
<path id="XMLID_169_" class="st14" d="M5.3,6.5C5.3,6.5,5.3,6.5,5.3,6.5C5.4,6.5,5.4,6.5,5.3,6.5z"/>
<path id="XMLID_167_" class="st14" d="M5.3,6.5C5.3,6.5,5.3,6.5,5.3,6.5C5.3,6.5,5.3,6.5,5.3,6.5z"/>
<path id="XMLID_165_" class="st1" d="M8.3,7.2c0-0.1,0-0.2,0-0.3c0,0,0-0.1,0.1-0.1c0.1,0,0.1,0,0.1,0.1C8.6,7,8.6,7.1,8.6,7.3
	C8.5,7.3,8.4,7.2,8.3,7.2z"/>
<path id="XMLID_164_" class="st4" d="M8.5,7.7c-0.1,0-0.1,0-0.2,0.1c0-0.1-0.1-0.1-0.2-0.1c0-0.2,0.3-0.2,0.4-0.1
	C8.5,7.5,8.5,7.6,8.5,7.7z"/>
<path id="XMLID_163_" class="st15" d="M8.2,7.6c0.1,0,0.1,0,0.2,0.1c0,0.1,0,0.1-0.1,0.1C8.2,7.8,8.1,7.8,8.2,7.6
	C8.1,7.6,8.1,7.6,8.2,7.6z"/>
<path id="XMLID_159_" class="st15" d="M8.5,7.7c0-0.1,0-0.1,0-0.2c0,0,0.1,0,0.1,0.1c0,0.1,0,0.1,0,0.2C8.6,7.7,8.5,7.7,8.5,7.7z"/>
<path id="XMLID_158_" class="st16" d="M9.9,9C9.9,9,9.9,9,9.9,9C9.9,9,9.9,9.1,9.9,9C9.9,9.1,9.9,9.1,9.9,9z"/>
<polygon id="XMLID_155_" class="st10" points="4.6,6.5 4.6,6.5 4.6,6.5 4.6,6.5 "/>
<path id="XMLID_153_" class="st14" d="M7.5,5C7.5,5,7.5,4.9,7.5,5C7.5,4.9,7.5,4.9,7.5,5C7.5,5,7.5,5,7.5,5z"/>
<path id="XMLID_152_" class="st15" d="M7.2,7.4c0.1,0,0.3,0.1,0.4,0.2c0,0,0,0,0,0.1c0,0-0.1,0-0.1,0c-0.2-0.1-0.4-0.1-0.7,0
	c0,0-0.1,0-0.1,0c0,0,0-0.1,0.1-0.1C6.9,7.4,7,7.4,7.2,7.4z"/>
<path id="XMLID_149_" class="st15" d="M7.4,7.8c-0.1,0-0.2,0-0.3,0.1c0,0,0,0-0.1,0c0,0,0,0,0-0.1c0.1-0.1,0.3-0.2,0.4-0.1
	c0,0,0,0,0,0C7.5,7.8,7.5,7.8,7.4,7.8C7.5,7.8,7.4,7.8,7.4,7.8z"/>
<path id="XMLID_145_" class="st13" d="M5.6,4.1C5.8,4.3,6,4.5,6.2,4.6c0,0-0.1,0.1-0.1,0.1C5.9,4.6,5.8,4.5,5.7,4.4
	C5.6,4.3,5.6,4.2,5.6,4.1z"/>
<path id="XMLID_143_" class="st3" d="M6,4.9C6,4.9,5.9,4.9,6,4.9C5.9,4.9,5.9,4.9,6,4.9z"/>
<path id="XMLID_142_" class="st3" d="M6,4.8C6,4.8,6,4.9,6,4.8C5.9,4.8,6,4.8,6,4.8z"/>
<path id="XMLID_139_" class="st4" d="M4.6,8.6C4.5,8.6,4.5,8.6,4.6,8.6c-0.1,0-0.1,0-0.2,0c-0.1,0-0.1,0.1,0,0.2
	c0,0,0.1,0.1,0.1,0.1c0.1,0.1,0.1,0.2,0,0.3C4.2,9.2,4,9,4,8.7c0-0.1,0-0.1,0-0.2c0.1-0.1,0.2-0.2,0.4-0.1C4.5,8.4,4.5,8.5,4.6,8.6z
	"/>
<path id="XMLID_137_" class="st15" d="M4.6,8.6c0-0.1-0.1-0.2-0.2-0.2c-0.1,0-0.3,0-0.4,0.1C3.8,8.7,3.8,8.8,3.9,9c0,0,0,0.1,0,0.1
	c0,0-0.1,0-0.1,0C3.7,8.9,3.7,8.8,3.7,8.6c0.1-0.2,0.2-0.3,0.4-0.4c0.2,0,0.3,0,0.5,0.1C4.6,8.4,4.7,8.5,4.6,8.6
	C4.6,8.6,4.6,8.6,4.6,8.6C4.6,8.6,4.6,8.6,4.6,8.6C4.6,8.6,4.6,8.6,4.6,8.6L4.6,8.6z"/>
<path id="XMLID_135_" class="st15" d="M4.5,9.2c0.1-0.1,0.1-0.2,0-0.3c0,0-0.1-0.1-0.1-0.1c-0.1-0.1-0.1-0.2,0-0.2c0,0,0.1,0,0.1,0
	c-0.1,0.1-0.1,0.1,0,0.2C4.7,8.9,4.8,9,4.7,9.2C4.6,9.3,4.4,9.4,4.3,9.3c0,0-0.1,0,0-0.1c0,0,0,0,0.1,0C4.4,9.3,4.5,9.2,4.5,9.2z"/>
<path id="XMLID_116_" class="st17" d="M4.6,8.6C4.6,8.6,4.6,8.6,4.6,8.6C4.6,8.6,4.6,8.6,4.6,8.6z"/>
<path id="XMLID_113_" class="st13" d="M6.4,4.5C6.3,4.5,6.2,4.4,6.1,4.3c0.1,0,0.2,0.1,0.4,0.1C6.4,4.5,6.4,4.5,6.4,4.5z"/>
<path id="XMLID_112_" class="st13" d="M6.6,4.4c0-0.1,0-0.1-0.1-0.2c0,0,0,0,0,0c0.1,0,0.1,0.1,0.2,0.1C6.6,4.3,6.6,4.3,6.6,4.4z"/>
<rect id="XMLID_96_" x="2.2" y="12.8" transform="matrix(1 -1.030276e-03 1.030276e-03 1 -1.470964e-02 1.263608e-02)" class="st18" width="20.1" height="3"/>
<rect id="XMLID_95_" x="12.2" y="10.9" transform="matrix(1 -1.030276e-03 1.030276e-03 1 -1.175786e-02 1.761538e-02)" class="st19" width="9.8" height="1.1"/>
<rect id="XMLID_91_" x="12.2" y="9" transform="matrix(1 -1.030276e-03 1.030276e-03 1 -9.784493e-03 1.761233e-02)" class="st19" width="9.8" height="1.1"/>
<rect id="XMLID_88_" x="12.2" y="4.1" transform="matrix(1 -1.030276e-03 1.030276e-03 1 -6.322017e-03 1.490178e-02)" class="st19" width="4.5" height="4"/>
<rect id="XMLID_82_" x="17.4" y="4.1" transform="matrix(1 -1.030276e-03 1.030276e-03 1 -6.313656e-03 2.031217e-02)" class="st19" width="4.5" height="4"/>
<rect id="XMLID_78_" x="1.9" y="12.8" transform="matrix(1 -1.030276e-03 1.030276e-03 1 -1.471012e-02 1.232382e-02)" class="st19" width="20.1" height="3"/>
</svg>
