<?xml version="1.0" encoding="utf-8"?>
<!-- Generator: Adobe Illustrator 23.0.1, SVG Export Plug-In . SVG Version: 6.00 Build 0)  -->
<svg version="1.1" id="Layer_1" xmlns="http://www.w3.org/2000/svg" xmlns:xlink="http://www.w3.org/1999/xlink" x="0px" y="0px"
	 viewBox="0 0 217 262" style="enable-background:new 0 0 217 262;" xml:space="preserve">
<style type="text/css">
	.st0{fill:#513A40;}
</style>
<path class="st0" d="M5.3,253.1L5,252.5c4.9-4.4,9-11.7,12.7-74.8c0.9-54.3,2.8-145.8,3.1-155C21.1,13.5,23.9,8.2,31,8.2
	s15.5,3.8,15.8,24.3c0.3,7.9,3.4,195.4,4,203.9c0.6,7.6,3.4,9.1,6.8,9.1c3.7,0,5.9-2.8,5.9-9.1c0-8.2,2.2-203,2.2-211.2
	c0-13.9,3.4-17,11.1-17c9.6,0,13.6,6.9,13.9,15.8c0.3,4.4,4,87.8,6.8,149v-1.3c3.7,68.5,7.7,76.4,13,80.8l-0.3,0.6
	c-8.4-3.8-14.5-4.4-22-4.4H88c-6.5,0-12.1,1-19.5,4.4l-0.3-0.6c4.3-3.8,7.4-7.9,8.4-38.5c0.3-54.9,0.3-187.2,0.3-190
	c0-7.6-0.9-10.1-3.1-10.1S70,15.4,70,24.2c0,8.8-0.3,204.9-0.3,209c0,13.3-5.6,17.7-16.7,17.7c-12.1,0-17-3.8-17.6-17
	C35,229.7,31,25.5,31,22.3c-0.3-6.9-1.2-8.5-3.1-8.5s-3.1,2.5-3.1,9.1c0,4.4-0.6,120.9-0.9,171.1c0.3,48.6,5.3,53.3,11.1,58.4
	l-0.3,0.6c-6.2-2.8-10.2-4.4-15.5-4.4h-0.3C14.6,248.7,11.2,249.9,5.3,253.1"/>
<g>
	<path class="st0" d="M155.2,10.9c-6.1,0-10.9,7.6-10.9,79.1v33.2h39V90c0-70.6-5.7-78.9-11.7-79.1l0-0.9c7.7,0.1,14.1,3.4,20.7,3.4
		h0.9c5.8,0,10.4-1.3,17.1-4.4l0.3,0.6c-4.9,4.4-8.4,12.2-8.4,80.3v82.2c0,68.1,3.5,75.9,8.4,80.3l-0.3,0.6
		c-6.7-3.1-11.3-4.4-17.1-4.4h-0.9c-6.6,0-12.9,3.4-20.7,3.5l0-0.3c6-0.1,11.7-8.6,11.7-79.6v-36.4h-39v36.4
		c0,71.5,4.9,79.6,11,79.6v0.3c-8.1,0-13.3-3.5-20-3.5h-0.9c-5.8,0-10.4,1.2-17.1,4.4l-0.3-0.6c4.9-4.4,8.4-12.2,8.4-80.3V90
		c0-68.1-3.5-75.9-8.4-80.3l0.3-0.6c6.7,3.1,11.3,4.4,17.1,4.4h0.9c6.7,0,11.7-3.4,19.8-3.4L155.2,10.9z M183.4,127.6h-39v3.8h39
		V127.6z"/>
</g>
</svg>
