<?xml version="1.0" encoding="utf-8"?>
<!-- Generator: Adobe Illustrator 23.0.1, SVG Export Plug-In . SVG Version: 6.00 Build 0)  -->
<svg version="1.1" id="Layer_1" xmlns="http://www.w3.org/2000/svg" xmlns:xlink="http://www.w3.org/1999/xlink" x="0px" y="0px"
	 viewBox="0 0 246.6 175.7" style="enable-background:new 0 0 246.6 175.7;" xml:space="preserve">
<style type="text/css">
	.st0{fill:#513A40;}
</style>
<g>
	<path class="st0" d="M86,47.7c0.2-2.5,0.3-7.7,0.3-16c0-6.7,0-15.7-0.1-22.6H76c-3.5,0-4.9,2.1-6.9,7l0.4-9.4
		C71.1,6.9,72.5,7,74.1,7h29.4c1.6,0,3.1-0.1,4.7-0.2l-0.4,9.4c-2-4.9-2.7-7-6.2-7H91v22.6c0,8.2,0.1,12.8,0.3,15.8
		c0.2,2,1.4,3.4,4.6,4.5H81.6C84.7,51,85.8,49.7,86,47.7z"/>
	<path class="st0" d="M115.8,47V12.1c-1.1-1.3-2.2-2.5-3.3-3.7l7.1-3.1V47c0,2.4,0.8,3.8,3.7,5h-11.2
		C114.9,50.8,115.8,49.4,115.8,47z M133.9,47V32.6c0-4.3-2-6.7-6.4-6.7c-2.9,0-5.5,0.7-7.8,2.1c1.9-3.5,4.9-5.8,9.5-5.8
		c5.6,0,8.7,3.6,8.7,9V47c0,2.4,0.8,3.8,3.7,5h-11.3C132.9,50.8,133.9,49.4,133.9,47z"/>
	<path class="st0" d="M145.9,37.9c0-9.2,5.5-15.7,13.3-15.7c6.7,0,10.9,4,10.9,11.6c0,0.4-0.1,0.8-0.1,1.3h-19.9
		c-0.1,0.5-0.1,1.1-0.1,1.6c0,7.1,3.6,12.7,11,12.7c3.7,0,6.2-0.9,8.5-2.1c-0.3,1.3-1,2.4-2,3.3c-1.6,1.3-4.1,2-7.7,2
		C151,52.5,145.9,46.8,145.9,37.9z M165.6,33.1c-0.1-4.9-2.6-8.6-7.6-8.6s-7.5,4.4-7.9,9.3L165.6,33.1z"/>
	<path class="st0" d="M12.8,103c0.8-10.4,1.5-20.8,2-31.3c0.1-2.2,0.3-4.9,0.5-8.2h1l19,38h0.2l18-38h1c0.2,2.6,0.3,5.2,0.5,7.9
		c0.7,10.2,1.3,21.6,1.9,30.6c0.2,3.9,1.3,5.9,5,7H48.6c3-1.3,3.7-2.8,3.5-5.9l-1.3-26.4h-0.2l-15.7,31.8H34L17.6,76.2h-0.2
		L15.9,103c-0.2,3.5,0.7,5.3,4,6.1H8.5C11.2,108,12.5,106.3,12.8,103z"/>
	<path class="st0" d="M69.7,100.4V85.9c-1-1.2-2.2-2.4-3.2-3.6l7.3-3.1v20.6c0,4.4,2.1,6.5,6.7,6.5c2.6,0,5.4-0.7,7.6-2.7
		c-1.1,4-4.8,5.8-9,5.8C73,109.5,69.7,106,69.7,100.4z M88.1,104.5c0-2.5,0.1-5.1,0.1-7.7V85.9c-1-1.2-2.2-2.4-3.2-3.6l7.3-3.1
		c-0.1,4.4-0.1,7.9-0.2,11.3c-0.2,5.1-0.2,12.2-0.2,13.2c0,1.6,0.8,2.6,2.5,2.6c1.3,0,2.2-0.4,3-1.1c0,1.3-0.4,2.4-1.3,3.2
		c-0.7,0.7-1.8,1-3.2,1C89.9,109.5,88.1,107.5,88.1,104.5z"/>
	<path class="st0" d="M102.9,103.9c-0.1-0.5-0.1-1.1-0.1-1.7c2.6,3.2,5.6,4.6,9.5,4.6c3.6,0,6.1-1.7,6.1-4.7c0-1.7-2.5-2.8-5.4-4
		c-4.5-1.8-10.2-4.1-10.2-10.3c0-5.7,4.3-8.6,9.2-8.6c5,0,8.4,2.1,8.8,5.6c0.1,0.4,0.1,1,0,1.4c-2.5-2.8-5.5-4-9.3-4
		c-3.4,0-5.9,1.9-5.9,4.9c0,2,2.7,3.1,5.8,4.4c4.5,1.9,9.9,4.3,9.9,10c0,4.9-3.8,8-9.4,8C107.1,109.5,103.4,107.8,102.9,103.9z"/>
	<path class="st0" d="M126.9,94.9c0-9.2,5.5-15.7,13.3-15.7c6.7,0,10.9,4,10.9,11.6c0,0.4-0.1,0.8-0.1,1.3h-19.9
		c-0.1,0.5-0.1,1.1-0.1,1.6c0,7.1,3.6,12.7,11,12.7c3.7,0,6.2-0.9,8.5-2.1c-0.3,1.3-1,2.4-2,3.3c-1.6,1.3-4.1,2-7.7,2
		C132,109.5,126.9,103.8,126.9,94.9z M146.6,90.1c-0.1-4.9-2.6-8.6-7.6-8.6s-7.5,4.4-7.9,9.3L146.6,90.1z"/>
	<path class="st0" d="M158.7,100.4V85.9c-1-1.2-2.2-2.4-3.2-3.6l7.3-3.1v20.6c0,4.4,2.1,6.5,6.7,6.5c2.6,0,5.4-0.7,7.6-2.7
		c-1.1,4-4.8,5.8-9,5.8C162.1,109.5,158.7,106,158.7,100.4z M177.1,104.5c0-2.5,0.1-5.1,0.1-7.7V85.9c-1-1.2-2.2-2.4-3.2-3.6
		l7.3-3.1c-0.1,4.4-0.1,7.9-0.2,11.3c-0.2,5.1-0.2,12.2-0.2,13.2c0,1.6,0.8,2.6,2.5,2.6c1.3,0,2.2-0.4,3-1.1c0,1.3-0.4,2.4-1.3,3.2
		c-0.7,0.7-1.8,1-3.2,1C178.9,109.5,177.1,107.5,177.1,104.5z"/>
	<path class="st0" d="M198.5,79.2V104c0,2.4,0.8,3.8,3.7,5h-11.2c2.6-1.3,3.6-2.6,3.6-5V86.1c-1.1-1.3-2.2-2.5-3.3-3.7L198.5,79.2z
		 M230.5,104V89.6c0-4.3-2-6.7-6.4-6.7c-2.9,0-5.5,0.7-7.8,2.1c0.3,1,0.4,2,0.4,3.2V104c0,2.4,0.8,3.8,3.7,5h-11.3
		c2.6-1.3,3.6-2.6,3.6-5V89.6c0-4.3-2-6.7-6.4-6.7c-2.9,0-5.5,0.7-7.8,2.1c1.9-3.5,4.9-5.8,9.5-5.8c4.4,0,7.3,2.2,8.3,5.8
		c1.9-3.5,4.9-5.8,9.5-5.8c5.6,0,8.7,3.6,8.7,9V104c0,2.4,0.8,3.8,3.7,5h-11.3C229.5,107.8,230.5,106.4,230.5,104z"/>
	<path class="st0" d="M83.9,170H69.6c3.1-1,4.2-2.3,4.4-4.3c0.2-2.5,0.3-7.7,0.3-16V148h-25v1.7c0,8.2,0.1,12.8,0.3,15.8
		c0.2,2,1.4,3.4,4.6,4.5H39.9c3.1-1,4.2-2.3,4.4-4.3c0.2-2.5,0.3-7.7,0.3-16c0-6.9,0.1-12.8-0.1-19.7c-0.1-2.6-1.4-3.6-4.7-5h14.7
		c-3.7,1.4-5.1,2.5-5.1,5v15.7h25c0-5.2,0-10-0.1-15.7c-0.1-2.6-1.4-3.6-4.7-5h14.7c-3.7,1.4-5.1,2.5-5.1,5v19.7
		c0,8.2,0.1,12.8,0.3,15.8C79.5,167.6,80.7,169,83.9,170z"/>
	<path class="st0" d="M89.5,155.7c0-9.4,6.6-15.4,13.9-15.4c7.8,0,13.8,5.8,13.8,15.1c0,9-6.2,15.1-13.7,15.1
		C95.5,170.5,89.5,164.7,89.5,155.7z M112.6,157c0-7-3.1-14.3-9.7-14.3c-5.4,0-8.8,5.2-8.8,11.9c0,7.9,4,13.7,10,13.7
		C109.2,168.3,112.6,163.5,112.6,157z"/>
	<path class="st0" d="M125.1,161.4v-14.5c-1-1.2-2.2-2.4-3.2-3.6l7.3-3.1v20.6c0,4.4,2.1,6.5,6.7,6.5c2.6,0,5.4-0.7,7.6-2.7
		c-1.1,4-4.8,5.8-9,5.8C128.4,170.5,125.1,167,125.1,161.4z M143.5,165.5c0-2.5,0.1-5.1,0.1-7.7v-10.9c-1-1.2-2.2-2.4-3.2-3.6
		l7.3-3.1c-0.1,4.4-0.1,7.9-0.2,11.3c-0.2,5.1-0.2,12.2-0.2,13.2c0,1.6,0.8,2.6,2.5,2.6c1.3,0,2.2-0.4,3-1.1c0,1.3-0.4,2.4-1.3,3.2
		c-0.7,0.7-1.8,1-3.2,1C145.3,170.5,143.5,168.5,143.5,165.5z"/>
	<path class="st0" d="M158.2,164.9c-0.1-0.5-0.1-1.1-0.1-1.7c2.6,3.2,5.6,4.6,9.5,4.6c3.6,0,6.1-1.7,6.1-4.7c0-1.7-2.5-2.8-5.4-4
		c-4.5-1.8-10.2-4.1-10.2-10.3c0-5.7,4.3-8.6,9.2-8.6c5,0,8.4,2.1,8.8,5.6c0.1,0.4,0.1,1,0,1.4c-2.5-2.8-5.5-4-9.3-4
		c-3.4,0-5.9,1.9-5.9,4.9c0,2,2.7,3.1,5.8,4.4c4.5,1.9,9.9,4.3,9.9,10c0,4.9-3.8,8-9.4,8C162.5,170.5,158.8,168.8,158.2,164.9z"/>
	<path class="st0" d="M182.2,155.9c0-9.2,5.5-15.7,13.3-15.7c6.7,0,10.9,4,10.9,11.6c0,0.4-0.1,0.8-0.1,1.3h-19.9
		c-0.1,0.5-0.1,1.1-0.1,1.6c0,7.1,3.6,12.7,11,12.7c3.7,0,6.2-0.9,8.5-2.1c-0.3,1.3-1,2.4-2,3.3c-1.6,1.3-4.1,2-7.7,2
		C187.4,170.5,182.2,164.8,182.2,155.9z M202,151.1c-0.1-4.9-2.6-8.6-7.6-8.6s-7.5,4.4-7.9,9.3L202,151.1z"/>
</g>
</svg>
